<svg xmlns="http://www.w3.org/2000/svg" viewBox="0 0 520 520" fill="none">
  <circle cx="260" cy="165" r="72" fill="#d7a07b"/>
  <path d="M175 95c-80 70-72 190-42 275h254c34-103 20-220-42-275-56-50-123-50-170 0z" fill="#5b3327"/>
  <path d="M150 330c28-58 74-88 110-88s82 30 110 88l32 190H118l32-190z" fill="#171514"/>
  <path d="M210 242c20 18 79 18 100 0v74H210v-74z" fill="#c98f6c"/>
  <path d="M205 235c29 24 81 24 110 0" stroke="#bd735f" stroke-width="5" stroke-linecap="round" opacity=".75"/>
</svg>
