<svg xmlns="http://www.w3.org/2000/svg" viewBox="0 0 520 520" fill="none" role="img" aria-labelledby="title desc">
  <title id="title">Temporary mobile stylist placeholder</title>
  <desc id="desc">A temporary upper-torso stylist illustration pointing upward toward the mobile service arc. This will be replaced with real photography later.</desc>
  <defs>
    <linearGradient id="hair" x1="135" y1="72" x2="285" y2="310" gradientUnits="userSpaceOnUse">
      <stop stop-color="#211816"/>
      <stop offset=".5" stop-color="#5b3327"/>
      <stop offset="1" stop-color="#c27645"/>
    </linearGradient>
    <filter id="shadow" x="-20%" y="-10%" width="140%" height="130%" color-interpolation-filters="sRGB">
      <feDropShadow dx="0" dy="18" stdDeviation="16" flood-color="#4a2d21" flood-opacity=".16"/>
    </filter>
  </defs>

  <g filter="url(#shadow)">
    <path d="M148 122c-57 38-78 111-58 183 10 36 5 70-18 109 47 19 105 6 131-36 21-35 23-73 16-124-7-52 7-87 28-116-24-34-65-38-99-16z" fill="url(#hair)"/>
    <path d="M258 112c54 25 82 81 76 143-3 39-21 72-12 116 9 45 42 69 42 69-55 25-125 6-151-48-16-34-15-78-4-126 8-38 2-78-16-103-20-30 12-70 65-51z" fill="url(#hair)"/>

    <path d="M190 101c-24 29-25 76-2 104 21 27 62 28 87 2 27-28 29-79 5-110-25-32-64-29-90 4z" fill="#d7a07b"/>
    <path d="M175 125c13-61 79-78 117-31 0 36-33 58-81 55-18-1-29-9-36-24z" fill="url(#hair)"/>
    <path d="M218 202v52h54v-55c-18 16-37 17-54 3z" fill="#cf936e"/>

    <path d="M105 344c18-61 62-95 140-95 79 0 125 34 145 95l-18 176H126L105 344z" fill="#171514"/>
    <path d="M137 322c-58 29-93 83-116 169l78 13c20-64 44-102 78-127l-40-55z" fill="#191716"/>
    <path d="M330 268c36 7 75 29 116 66 22 20 43 44 63 73l-49 42c-49-60-92-98-132-114l2-67z" fill="#191716"/>
    <path d="M459 449c19 3 36-9 45-27 8-16 4-35-8-48-11 12-24 23-40 32-3 19-2 34 3 43z" fill="#d7a07b"/>
    <path d="M489 380l16-55" stroke="#d7a07b" stroke-width="15" stroke-linecap="round"/>
    <path d="M506 325l-2-49" stroke="#d7a07b" stroke-width="11" stroke-linecap="round"/>
    <path d="M492 337l-23-25" stroke="#d7a07b" stroke-width="9" stroke-linecap="round"/>
    <path d="M488 355l-27-17" stroke="#d7a07b" stroke-width="8" stroke-linecap="round"/>
    <path d="M219 238c14 14 34 14 53 0" stroke="#bd735f" stroke-width="4" stroke-linecap="round" opacity=".75"/>
    <path d="M160 342c54 31 113 35 177 5" stroke="#403734" stroke-opacity=".3" stroke-width="4"/>
  </g>
</svg>
